<?xml version="1.0" encoding="utf-8"?>
<!-- Generator: Adobe Illustrator 27.5.0, SVG Export Plug-In . SVG Version: 6.00 Build 0)  -->
<svg version="1.1" xmlns="http://www.w3.org/2000/svg" xmlns:xlink="http://www.w3.org/1999/xlink" x="0px" y="0px"
	 viewBox="0 0 3710 3710" style="enable-background:new 0 0 3710 3710;" xml:space="preserve">
<g id="Background">
	<g>
		<g>
			<rect style="fill:#FFFFFF;" width="3710" height="3710"/>
		</g>
	</g>
</g>
<g id="Illustration">
	<g>
		<linearGradient id="SVGID_1_" gradientUnits="userSpaceOnUse" x1="3423.3579" y1="3236.8645" x2="1387.6312" y2="1455.6051">
			<stop  offset="0" style="stop-color:#B37CFF"/>
			<stop  offset="1" style="stop-color:#F895E7"/>
		</linearGradient>
		<path style="opacity:0.3;fill:url(#SVGID_1_);" d="M3077.39,2311.777c-263.098,619.49-963.93,966.532-1571.693,872.919
			c-98.895-15.233-370.019-60.609-610.062-274.677C433.537,2497.92,334.713,1681.912,707.474,1106.852
			C978.779,688.309,1465.12,451.052,1927.24,462.919c99.541,2.556,481.021,18.311,816.277,294.755
			c49.242,40.604,157.852,137.091,255.735,290.162C3229.098,1407.273,3248.854,1908.048,3077.39,2311.777z"/>
		<g>
			
				<linearGradient id="SVGID_00000121272801338793730750000001346908817152845731_" gradientUnits="userSpaceOnUse" x1="-700.9322" y1="3375.9065" x2="616.1033" y2="3375.9065" gradientTransform="matrix(-0.8826 0.4701 0.4701 0.8826 992.9909 -1445.3899)">
				<stop  offset="0" style="stop-color:#A737D5"/>
				<stop  offset="1" style="stop-color:#EF497A"/>
			</linearGradient>
			<path style="fill:url(#SVGID_00000121272801338793730750000001346908817152845731_);" d="M2809.422,479.624
				c1.551-14.99-17.256-23.022-27.189-11.689c-100.872,115.073-337.229,453.267-217.618,992.417
				c150.07,676.444,31.792,940.123-130.874,1109.775c0,0,236.794-95.391,365.482-363.793
				C3115.18,1547.344,2781.855,746.145,2809.422,479.624z"/>
			<path style="fill:#FFFFFF;" d="M2745.751,701.668c-6.468,77.562-11.404,155.21-13.493,232.927
				c-2.497,77.692-2.638,155.426-0.356,233.052c2.58,77.61,6.615,155.16,13.939,232.424c6.976,77.293,17.264,154.199,27.863,231.378
				c10.162,77.194,20.839,154.901,23.593,233.938c2.82,78.869-3.729,159.341-24.788,236.231
				c-5.27,19.165-10.909,38.309-17.621,56.929c-6.369,18.753-13.57,37.229-21.099,55.568
				c-15.244,36.612-32.944,72.275-53.209,106.462c-40.711,68.281-91.789,130.31-149.463,184.213
				c-6.07,5.673-15.59,5.351-21.264-0.719c-5.571-5.96-5.361-15.248,0.396-20.953l0.041-0.04
				c13.656-13.508,27.142-27.155,39.972-41.356c6.531-7,12.736-14.274,19.076-21.429c6.061-7.385,12.412-14.539,18.238-22.104
				c23.811-29.859,45.497-61.354,64.746-94.296c38.781-65.624,67.954-137.383,88.202-210.801
				c9.712-36.835,16.693-74.321,20.765-112.215c4.043-37.901,5.181-76.171,4.136-114.535
				c-2.088-76.771-12.02-153.772-21.626-231.034c-9.509-77.292-18.533-155.028-24.345-233.013c-3.01-38.98-5.32-78.01-6.93-117.061
				c-0.917-19.52-1.456-39.055-2.031-58.585c-0.387-19.536-0.666-39.072-0.785-58.605c-0.333-78.139,1.718-156.251,6.233-234.188
				c4.889-77.915,11.845-155.675,21.784-233.035c0.285-2.212,2.307-3.773,4.518-3.489
				C2744.391,697.606,2745.925,699.533,2745.751,701.668z"/>
		</g>
		<g>
			<g>
				
					<linearGradient id="SVGID_00000053517751615837356550000001853880546340624816_" gradientUnits="userSpaceOnUse" x1="2538.7468" y1="2244.1519" x2="3601.5876" y2="907.2452">
					<stop  offset="0" style="stop-color:#A737D5"/>
					<stop  offset="1" style="stop-color:#EF497A"/>
				</linearGradient>
				<path style="fill:url(#SVGID_00000053517751615837356550000001853880546340624816_);" d="M2877.203,2508.126
					c11.917,25.079,45.574,29.838,64.246,9.287c103.03-113.393,365.338-460.338,285.869-983.234
					c-67.108-441.562-61.535-687.372-51.273-798.786c2.17-23.559-26.998-36.195-42.735-18.53
					C2959.681,911.769,2445.393,1599.36,2877.203,2508.126z"/>
				<path style="fill:#FFFFFF;" d="M2909.572,2351.094c0.608,0.324,1.253,0.593,1.937,0.801c5.724,1.751,11.786-1.47,13.538-7.194
					c1.985-6.49,197.796-656.099,132.221-1274.277c-0.633-5.949-5.969-10.264-11.926-9.638c-5.954,0.634-10.268,5.97-9.638,11.926
					c65.098,613.678-129.418,1259.199-131.389,1265.646C2902.77,2343.401,2905.085,2348.704,2909.572,2351.094z"/>
			</g>
		</g>
		<g>
			<g>
				<g>
					
						<linearGradient id="SVGID_00000173141085072185520110000013566009385307056826_" gradientUnits="userSpaceOnUse" x1="1837.6667" y1="1004.9269" x2="1864.1807" y2="2774.7231">
						<stop  offset="0" style="stop-color:#2B3582"/>
						<stop  offset="1" style="stop-color:#150E42"/>
					</linearGradient>
					<path style="fill:url(#SVGID_00000173141085072185520110000013566009385307056826_);" d="M580.657,2688.713
						c0,24.843,20.346,45.169,45.213,45.169h2444.951c24.867,0,45.214-20.326,45.214-45.169l20.344-1405.046
						c0-24.844-29.27-73.344-82.912-69.7l-2389.476-61.828c-31.202-0.807-61.37,11.202-83.464,33.225
						c-22.095,22.023-34.184,52.134-33.447,83.306L580.657,2688.713z"/>
					
						<linearGradient id="SVGID_00000083073053763787444300000010497134357225213867_" gradientUnits="userSpaceOnUse" x1="2214.6042" y1="1225.7855" x2="778.5422" y2="3920.9263">
						<stop  offset="0" style="stop-color:#FDF53F"/>
						<stop  offset="1" style="stop-color:#D93C65"/>
					</linearGradient>
					<path style="fill:url(#SVGID_00000083073053763787444300000010497134357225213867_);" d="M625.295,2645.377
						c0,23.526,19.248,42.775,42.775,42.775h2343.791c23.526,0,42.775-19.25,42.775-42.775l19.198-1275.514
						c-2.261-76.757-69.556-104.345-110.348-102.716l-2290.097-61.439c-21.92-0.588-43.114,7.857-58.639,23.343
						c-15.525,15.486-24.063,36.679-23.513,58.6L625.295,2645.377z"/>
					<g>
						<path style="fill:#FFFFFF;" d="M3029.307,2038.946c-0.029,0-0.058,0-0.086,0c-3.203-0.047-5.76-2.685-5.711-5.884
							l1.518-103.441c0.047-3.2,2.673-5.526,5.878-5.711c3.203,0.046,5.76,2.684,5.711,5.884l-1.519,103.441
							C3035.052,2036.406,3032.466,2038.946,3029.307,2038.946z"/>
						<path style="fill:#FFFFFF;" d="M3033.03,1785.458c-0.029,0-0.057,0-0.086,0c-3.202-0.047-5.76-2.685-5.711-5.885
							l5.818-396.185c-0.11-23.676-7.302-42.579-21.379-56.066c-26.231-25.134-67.846-23.833-69.625-23.78l-731.934-19.626
							c-3.199-0.081-5.722-2.749-5.639-5.948c0.084-3.148,2.661-5.642,5.792-5.642c0.052,0,0.104,0,0.159,0.006l731.533,19.626
							c4.539-0.214,48.497-1.019,77.734,26.992c16.432,15.749,24.827,37.447,24.951,64.495l-5.82,396.302
							C3038.776,1782.918,3036.189,1785.458,3033.03,1785.458z"/>
					</g>
					
						<linearGradient id="SVGID_00000098183591025520258830000006601174932467532722_" gradientUnits="userSpaceOnUse" x1="1856.7113" y1="2575.4326" x2="1903.3679" y2="1442.3391">
						<stop  offset="0" style="stop-color:#2B3582"/>
						<stop  offset="1" style="stop-color:#150E42"/>
					</linearGradient>
					<path style="fill:url(#SVGID_00000098183591025520258830000006601174932467532722_);" d="M474.918,2850.518h2746.015
						c3.853,0,7.004-3.152,7.004-7.004V2734.07c0-3.852-3.152-7.004-7.004-7.004H474.918c-3.853,0-7.005,3.152-7.005,7.005v109.443
						C467.914,2847.366,471.066,2850.518,474.918,2850.518z"/>
				</g>
				<path style="opacity:0.4;fill:#FFFFFF;" d="M2963.896,1360.834c-15.729-17.057-37.478-26.953-60.384-27.471l-2137.43-48.314
					c-23.499-0.531-45.953,8.579-62.281,25.268c-16.324,16.685-25.141,39.529-24.462,63.365l31.649,1111.313
					c1.354,47.548,40.93,85.846,88.379,85.591l2067.67-11.101c45.469-0.244,82.737-36.806,84.302-82.736l35.874-1052.674
					C2988.012,1400.66,2979.616,1377.882,2963.896,1360.834z"/>
				<g>
					<path style="fill:#FFFFFF;" d="M1688.278,1705.725l0.111,4.094c0.3,11.083,7.223,19.876,15.682,19.92l643.819,0.975
						c8.735,0.045,15.83-9.235,15.815-20.686l0,0c-0.014-11.229-6.871-20.386-15.435-20.613l-643.93-5.069
						C1695.297,1684.106,1687.957,1693.876,1688.278,1705.725z"/>
					<path style="fill:#FFFFFF;" d="M1688.278,1850.736l0.111,4.094c0.3,11.083,7.223,19.877,15.682,19.92l643.819,0.976
						c8.735,0.044,15.83-9.236,15.815-20.687l0,0c-0.014-11.23-6.871-20.386-15.435-20.613l-643.93-5.07
						C1695.297,1829.117,1687.957,1838.886,1688.278,1850.736z"/>
					<path style="fill:#FFFFFF;" d="M1688.278,1995.746l0.111,4.094c0.3,11.083,7.223,19.876,15.682,19.919l643.819,0.976
						c8.735,0.045,15.83-9.235,15.815-20.686l0,0c-0.014-11.23-6.871-20.386-15.435-20.612l-643.93-5.07
						C1695.297,1974.127,1687.957,1983.897,1688.278,1995.746z"/>
				</g>
				<path style="fill:#FFFFFF;" d="M2598.042,1545.14c0,26.541-21.515,48.056-48.056,48.056h-916.599
					c-26.541,0-48.056-21.515-48.056-48.056v-0.814c0-26.541,21.515-48.056,48.056-48.056h916.599
					c26.541,0,48.056,21.515,48.056,48.056V1545.14z"/>
			</g>
			<g>
				
					<linearGradient id="SVGID_00000067944154771283900890000011022305127334560928_" gradientUnits="userSpaceOnUse" x1="1145.0454" y1="1794.4365" x2="1171.1632" y2="3178.7141">
					<stop  offset="0" style="stop-color:#53D8FF"/>
					<stop  offset="1" style="stop-color:#3840F7"/>
				</linearGradient>
				<path style="fill:url(#SVGID_00000067944154771283900890000011022305127334560928_);" d="M1528.512,1483.858
					c0-42.984-34.845-77.829-77.829-77.829H844.3c-42.984,0-77.829,34.845-77.829,77.829v880.449
					c0,42.984,34.845,77.829,77.829,77.829h606.382c42.984,0,77.829-34.845,77.829-77.829V1483.858z"/>
				
					<linearGradient id="SVGID_00000006675844078935462960000011493889199109840565_" gradientUnits="userSpaceOnUse" x1="1209.0758" y1="1399.6912" x2="1067.599" y2="2580.0178">
					<stop  offset="0" style="stop-color:#53D8FF"/>
					<stop  offset="1" style="stop-color:#3840F7"/>
				</linearGradient>
				<path style="fill:url(#SVGID_00000006675844078935462960000011493889199109840565_);" d="M1154.176,2434.044
					c0,4.469-3.623,8.092-8.092,8.092h-0.527c-4.469,0-8.092-3.623-8.092-8.092V1420.806c0-4.469,3.623-8.092,8.092-8.092h0.527
					c4.469,0,8.092,3.623,8.092,8.092V2434.044z"/>
				<g>
					<g>
						<g>
							<path style="opacity:0.3;fill:#FFFFFF;" d="M1104.042,1604.251c0,40.042-32.46,72.502-72.502,72.502H889.108
								c-40.042,0-72.502-32.46-72.502-72.502v-2.056c0-40.042,32.461-72.502,72.502-72.502h142.431
								c40.042,0,72.502,32.46,72.502,72.502V1604.251z"/>
							<g>
								
									<linearGradient id="SVGID_00000175294771631388521730000016651861642936818350_" gradientUnits="userSpaceOnUse" x1="-2209.7397" y1="4251.8569" x2="-2464.4709" y2="4563.1953" gradientTransform="matrix(0.0044 1 -1 0.0044 564.6613 19.9631)">
									<stop  offset="0" style="stop-color:#B37CFF"/>
									<stop  offset="1" style="stop-color:#F895E7"/>
								</linearGradient>
								<path style="fill:url(#SVGID_00000175294771631388521730000016651861642936818350_);" d="M1024.003,1651.943l-122.057,0.538
									c-24.803,0.109-44.996-19.907-45.105-44.71c-0.055-12.39,4.916-23.651,13.01-31.816c8.094-8.166,19.31-13.235,31.7-13.29
									l122.057-0.538c24.803-0.109,44.996,19.907,45.105,44.71c0.055,12.39-4.916,23.65-13.01,31.816
									C1047.609,1646.818,1036.393,1651.888,1024.003,1651.943z"/>
								
									<linearGradient id="SVGID_00000171688348383375606870000012807246696923450287_" gradientUnits="userSpaceOnUse" x1="562.7786" y1="2192.5066" x2="1207.4208" y2="1132.4897">
									<stop  offset="0" style="stop-color:#CE1567"/>
									<stop  offset="1" style="stop-color:#7A1DBC"/>
								</linearGradient>
								<path style="fill:url(#SVGID_00000171688348383375606870000012807246696923450287_);" d="M962.975,1650.325l-61.028,0.269
									c-24.803,0.109-44.996-19.907-45.105-44.71c-0.055-12.39,4.916-23.651,13.01-31.816c8.094-8.166,19.31-13.235,31.7-13.29
									l61.028-0.269L962.975,1650.325z"/>
							</g>
						</g>
						<g>
							<path style="opacity:0.3;fill:#FFFFFF;" d="M1471.693,1604.251c0,40.042-32.46,72.502-72.502,72.502h-142.431
								c-40.042,0-72.502-32.46-72.502-72.502v-2.056c0-40.042,32.46-72.502,72.502-72.502h142.431
								c40.042,0,72.502,32.46,72.502,72.502V1604.251z"/>
							<g>
								
									<linearGradient id="SVGID_00000139999400770861052340000001152120671935388055_" gradientUnits="userSpaceOnUse" x1="1545.7766" y1="-759.9537" x2="1635.5928" y2="-759.9537" gradientTransform="matrix(0.0044 1 -1 0.0044 564.6613 19.9631)">
									<stop  offset="0" style="stop-color:#B37CFF"/>
									<stop  offset="1" style="stop-color:#F895E7"/>
								</linearGradient>
								<path style="fill:url(#SVGID_00000139999400770861052340000001152120671935388055_);" d="M1392.84,1651.943l-122.057,0.538
									c-24.803,0.109-44.996-19.907-45.105-44.71c-0.055-12.39,4.916-23.651,13.01-31.816c8.094-8.166,19.31-13.235,31.7-13.29
									l122.057-0.538c24.803-0.109,44.996,19.907,45.105,44.71c0.055,12.39-4.916,23.65-13.01,31.816
									C1416.446,1646.818,1405.23,1651.888,1392.84,1651.943z"/>
								
									<linearGradient id="SVGID_00000000905622618391457390000011815988242588380299_" gradientUnits="userSpaceOnUse" x1="-1773.8835" y1="4809.3833" x2="-1129.2386" y2="3749.3623" gradientTransform="matrix(0.0044 1 -1 0.0044 564.6613 19.9631)">
									<stop  offset="0" style="stop-color:#CE1567"/>
									<stop  offset="1" style="stop-color:#7A1DBC"/>
								</linearGradient>
								<path style="fill:url(#SVGID_00000000905622618391457390000011815988242588380299_);" d="M1331.812,1652.212l-61.029,0.269
									c-24.803,0.109-44.996-19.907-45.105-44.71c-0.055-12.39,4.916-23.651,13.01-31.816c8.094-8.166,19.31-13.235,31.7-13.29
									l61.028-0.269L1331.812,1652.212z"/>
							</g>
						</g>
						<path style="opacity:0.3;fill:#FFFFFF;" d="M1057.25,1566.458c0,3.692-2.993,6.685-6.685,6.685H866.74
							c-3.692,0-6.685-2.993-6.685-6.685l0,0c0-3.692,2.993-6.685,6.685-6.685h183.825
							C1054.257,1559.774,1057.25,1562.766,1057.25,1566.458L1057.25,1566.458z"/>
						<path style="opacity:0.3;fill:#FFFFFF;" d="M1428.243,1566.458c0,3.692-2.993,6.685-6.684,6.685h-183.825
							c-3.692,0-6.685-2.993-6.685-6.685l0,0c0-3.692,2.993-6.685,6.685-6.685h183.825
							C1425.25,1559.774,1428.243,1562.766,1428.243,1566.458L1428.243,1566.458z"/>
					</g>
					<g>
						<g>
							<path style="opacity:0.3;fill:#FFFFFF;" d="M1104.042,1821.5c0,40.042-32.46,72.502-72.502,72.502H889.108
								c-40.042,0-72.502-32.461-72.502-72.502v-2.056c0-40.042,32.461-72.502,72.502-72.502h142.431
								c40.042,0,72.502,32.46,72.502,72.502V1821.5z"/>
							<g>
								
									<linearGradient id="SVGID_00000180342365381520648640000007915103912457393305_" gradientUnits="userSpaceOnUse" x1="-2081.875" y1="4356.4595" x2="-2336.6062" y2="4667.7979" gradientTransform="matrix(0.0044 1 -1 0.0044 564.6613 19.9631)">
									<stop  offset="0" style="stop-color:#B37CFF"/>
									<stop  offset="1" style="stop-color:#F895E7"/>
								</linearGradient>
								<path style="fill:url(#SVGID_00000180342365381520648640000007915103912457393305_);" d="M1024.003,1864.63l-122.057,0.538
									c-24.803,0.109-44.996-19.907-45.105-44.71c-0.055-12.39,4.916-23.651,13.01-31.815c8.094-8.166,19.31-13.235,31.7-13.29
									l122.057-0.538c24.803-0.109,44.996,19.907,45.105,44.71c0.055,12.39-4.916,23.651-13.01,31.816
									C1047.609,1859.505,1036.393,1864.575,1024.003,1864.63z"/>
								
									<linearGradient id="SVGID_00000027604646850305422010000018282355632012728234_" gradientUnits="userSpaceOnUse" x1="657.2018" y1="2249.929" x2="1301.8442" y2="1189.9117">
									<stop  offset="0" style="stop-color:#CE1567"/>
									<stop  offset="1" style="stop-color:#7A1DBC"/>
								</linearGradient>
								<path style="fill:url(#SVGID_00000027604646850305422010000018282355632012728234_);" d="M962.975,1863.012l-61.028,0.269
									c-24.803,0.109-44.996-19.907-45.105-44.71c-0.055-12.39,4.916-23.651,13.01-31.816c8.094-8.166,19.31-13.235,31.7-13.29
									l61.028-0.269L962.975,1863.012z"/>
							</g>
						</g>
						<g>
							<path style="opacity:0.3;fill:#FFFFFF;" d="M1471.693,1821.5c0,40.042-32.46,72.502-72.502,72.502h-142.431
								c-40.042,0-72.502-32.461-72.502-72.502v-2.056c0-40.042,32.46-72.502,72.502-72.502h142.431
								c40.042,0,72.502,32.46,72.502,72.502V1821.5z"/>
							<g>
								
									<linearGradient id="SVGID_00000038371648973125443810000001040967494721773744_" gradientUnits="userSpaceOnUse" x1="1758.4596" y1="-759.0179" x2="1848.2758" y2="-759.0179" gradientTransform="matrix(0.0044 1 -1 0.0044 564.6613 19.9631)">
									<stop  offset="0" style="stop-color:#B37CFF"/>
									<stop  offset="1" style="stop-color:#F895E7"/>
								</linearGradient>
								<path style="fill:url(#SVGID_00000038371648973125443810000001040967494721773744_);" d="M1392.84,1864.63l-122.057,0.538
									c-24.803,0.109-44.996-19.907-45.105-44.71c-0.055-12.39,4.916-23.651,13.01-31.815c8.094-8.166,19.31-13.235,31.7-13.29
									l122.057-0.538c24.803-0.109,44.996,19.907,45.105,44.71c0.055,12.39-4.916,23.651-13.01,31.816
									C1416.446,1859.505,1405.23,1864.575,1392.84,1864.63z"/>
								
									<linearGradient id="SVGID_00000003794047108916090600000002735118688354147761_" gradientUnits="userSpaceOnUse" x1="-1618.209" y1="4904.061" x2="-973.564" y2="3844.0396" gradientTransform="matrix(0.0044 1 -1 0.0044 564.6613 19.9631)">
									<stop  offset="0" style="stop-color:#CE1567"/>
									<stop  offset="1" style="stop-color:#7A1DBC"/>
								</linearGradient>
								<path style="fill:url(#SVGID_00000003794047108916090600000002735118688354147761_);" d="M1331.812,1864.899l-61.029,0.269
									c-24.803,0.109-44.996-19.907-45.105-44.71c-0.055-12.39,4.916-23.651,13.01-31.815c8.094-8.166,19.31-13.235,31.7-13.29
									l61.028-0.269L1331.812,1864.899z"/>
							</g>
						</g>
						<path style="opacity:0.3;fill:#FFFFFF;" d="M1057.25,1783.707c0,3.692-2.993,6.685-6.685,6.685H866.74
							c-3.692,0-6.685-2.993-6.685-6.685l0,0c0-3.692,2.993-6.685,6.685-6.685h183.825
							C1054.257,1777.022,1057.25,1780.015,1057.25,1783.707L1057.25,1783.707z"/>
						<path style="opacity:0.3;fill:#FFFFFF;" d="M1428.243,1783.707c0,3.692-2.993,6.685-6.684,6.685h-183.825
							c-3.692,0-6.685-2.993-6.685-6.685l0,0c0-3.692,2.993-6.685,6.685-6.685h183.825
							C1425.25,1777.022,1428.243,1780.015,1428.243,1783.707L1428.243,1783.707z"/>
					</g>
					<g>
						<g>
							<path style="opacity:0.3;fill:#FFFFFF;" d="M1104.042,2032.063c0,40.042-32.46,72.502-72.502,72.502H889.108
								c-40.042,0-72.502-32.46-72.502-72.502v-2.056c0-40.042,32.461-72.502,72.502-72.502h142.431
								c40.042,0,72.502,32.46,72.502,72.502V2032.063z"/>
							<g>
								
									<linearGradient id="SVGID_00000026875996909877273340000017992794570572395142_" gradientUnits="userSpaceOnUse" x1="-1954.0223" y1="4461.0767" x2="-2208.7537" y2="4772.415" gradientTransform="matrix(0.0044 1 -1 0.0044 564.6613 19.9631)">
									<stop  offset="0" style="stop-color:#B37CFF"/>
									<stop  offset="1" style="stop-color:#F895E7"/>
								</linearGradient>
								<path style="fill:url(#SVGID_00000026875996909877273340000017992794570572395142_);" d="M1024.003,2077.317l-122.057,0.538
									c-24.803,0.109-44.996-19.907-45.105-44.71c-0.055-12.39,4.916-23.651,13.01-31.816c8.094-8.165,19.31-13.235,31.7-13.29
									l122.057-0.538c24.803-0.109,44.996,19.907,45.105,44.71c0.055,12.39-4.916,23.651-13.01,31.816
									C1047.609,2072.192,1036.393,2077.262,1024.003,2077.317z"/>
								
									<linearGradient id="SVGID_00000157992598734630984580000005508890373219051188_" gradientUnits="userSpaceOnUse" x1="751.6251" y1="2307.3511" x2="1396.2676" y2="1247.334">
									<stop  offset="0" style="stop-color:#CE1567"/>
									<stop  offset="1" style="stop-color:#7A1DBC"/>
								</linearGradient>
								<path style="fill:url(#SVGID_00000157992598734630984580000005508890373219051188_);" d="M962.975,2075.699l-61.028,0.269
									c-24.803,0.109-44.996-19.907-45.105-44.71c-0.055-12.39,4.916-23.651,13.01-31.816c8.094-8.166,19.31-13.235,31.7-13.29
									l61.028-0.269L962.975,2075.699z"/>
							</g>
						</g>
						<g>
							<path style="opacity:0.3;fill:#FFFFFF;" d="M1471.693,2032.063c0,40.042-32.46,72.502-72.502,72.502h-142.431
								c-40.042,0-72.502-32.46-72.502-72.502v-2.056c0-40.042,32.46-72.502,72.502-72.502h142.431
								c40.042,0,72.502,32.46,72.502,72.502V2032.063z"/>
							<g>
								
									<linearGradient id="SVGID_00000140721935359395951290000004284692396018846643_" gradientUnits="userSpaceOnUse" x1="1971.1425" y1="-758.0822" x2="2060.9587" y2="-758.0822" gradientTransform="matrix(0.0044 1 -1 0.0044 564.6613 19.9631)">
									<stop  offset="0" style="stop-color:#B37CFF"/>
									<stop  offset="1" style="stop-color:#F895E7"/>
								</linearGradient>
								<path style="fill:url(#SVGID_00000140721935359395951290000004284692396018846643_);" d="M1392.84,2077.317l-122.057,0.538
									c-24.803,0.109-44.996-19.907-45.105-44.71c-0.055-12.39,4.916-23.651,13.01-31.816c8.094-8.165,19.31-13.235,31.7-13.29
									l122.057-0.538c24.803-0.109,44.996,19.907,45.105,44.71c0.055,12.39-4.916,23.651-13.01,31.816
									C1416.446,2072.192,1405.23,2077.262,1392.84,2077.317z"/>
								
									<linearGradient id="SVGID_00000043416019955881201450000013612185550804387259_" gradientUnits="userSpaceOnUse" x1="-1462.5286" y1="4998.729" x2="-817.8835" y2="3938.7073" gradientTransform="matrix(0.0044 1 -1 0.0044 564.6613 19.9631)">
									<stop  offset="0" style="stop-color:#CE1567"/>
									<stop  offset="1" style="stop-color:#7A1DBC"/>
								</linearGradient>
								<path style="fill:url(#SVGID_00000043416019955881201450000013612185550804387259_);" d="M1331.812,2077.586l-61.029,0.269
									c-24.803,0.109-44.996-19.907-45.105-44.71c-0.055-12.39,4.916-23.651,13.01-31.816c8.094-8.165,19.31-13.235,31.7-13.29
									l61.028-0.269L1331.812,2077.586z"/>
							</g>
						</g>
						<path style="opacity:0.3;fill:#FFFFFF;" d="M1057.25,1994.27c0,3.692-2.993,6.685-6.685,6.685H866.74
							c-3.692,0-6.685-2.993-6.685-6.685l0,0c0-3.692,2.993-6.685,6.685-6.685h183.825
							C1054.257,1987.586,1057.25,1990.578,1057.25,1994.27L1057.25,1994.27z"/>
						<path style="opacity:0.3;fill:#FFFFFF;" d="M1428.243,1994.27c0,3.692-2.993,6.685-6.684,6.685h-183.825
							c-3.692,0-6.685-2.993-6.685-6.685l0,0c0-3.692,2.993-6.685,6.685-6.685h183.825
							C1425.25,1987.586,1428.243,1990.578,1428.243,1994.27L1428.243,1994.27z"/>
					</g>
					<g>
						<g>
							<path style="opacity:0.3;fill:#FFFFFF;" d="M1104.042,2245.969c0,40.042-32.46,72.502-72.502,72.502H889.108
								c-40.042,0-72.502-32.46-72.502-72.502v-2.056c0-40.042,32.461-72.502,72.502-72.502h142.431
								c40.042,0,72.502,32.46,72.502,72.502V2245.969z"/>
							<g>
								
									<linearGradient id="SVGID_00000172412403033209709410000015582241817480178355_" gradientUnits="userSpaceOnUse" x1="-1826.1599" y1="4565.6821" x2="-2080.8914" y2="4877.0205" gradientTransform="matrix(0.0044 1 -1 0.0044 564.6613 19.9631)">
									<stop  offset="0" style="stop-color:#B37CFF"/>
									<stop  offset="1" style="stop-color:#F895E7"/>
								</linearGradient>
								<path style="fill:url(#SVGID_00000172412403033209709410000015582241817480178355_);" d="M1024.003,2290.004l-122.057,0.538
									c-24.803,0.109-44.996-19.907-45.105-44.71c-0.055-12.39,4.916-23.651,13.01-31.816c8.094-8.166,19.31-13.235,31.7-13.29
									l122.057-0.538c24.803-0.11,44.996,19.907,45.105,44.71c0.055,12.39-4.916,23.65-13.01,31.816
									C1047.609,2284.879,1036.393,2289.949,1024.003,2290.004z"/>
								
									<linearGradient id="SVGID_00000152968650699214681580000012021991905453991581_" gradientUnits="userSpaceOnUse" x1="846.0479" y1="2364.7742" x2="1490.6902" y2="1304.7573">
									<stop  offset="0" style="stop-color:#CE1567"/>
									<stop  offset="1" style="stop-color:#7A1DBC"/>
								</linearGradient>
								<path style="fill:url(#SVGID_00000152968650699214681580000012021991905453991581_);" d="M962.975,2288.386l-61.028,0.269
									c-24.803,0.109-44.996-19.907-45.105-44.709c-0.055-12.39,4.916-23.651,13.01-31.816c8.094-8.165,19.31-13.235,31.7-13.29
									l61.028-0.269L962.975,2288.386z"/>
							</g>
						</g>
						<g>
							<path style="opacity:0.3;fill:#FFFFFF;" d="M1471.693,2245.969c0,40.042-32.46,72.502-72.502,72.502h-142.431
								c-40.042,0-72.502-32.46-72.502-72.502v-2.056c0-40.042,32.46-72.502,72.502-72.502h142.431
								c40.042,0,72.502,32.46,72.502,72.502V2245.969z"/>
							<g>
								
									<linearGradient id="SVGID_00000072274550663732016950000011467769720743172737_" gradientUnits="userSpaceOnUse" x1="2183.8254" y1="-757.1463" x2="2273.6416" y2="-757.1463" gradientTransform="matrix(0.0044 1 -1 0.0044 564.6613 19.9631)">
									<stop  offset="0" style="stop-color:#B37CFF"/>
									<stop  offset="1" style="stop-color:#F895E7"/>
								</linearGradient>
								<path style="fill:url(#SVGID_00000072274550663732016950000011467769720743172737_);" d="M1392.84,2290.004l-122.057,0.538
									c-24.803,0.109-44.996-19.907-45.105-44.71c-0.055-12.39,4.916-23.651,13.01-31.816c8.094-8.166,19.31-13.235,31.7-13.29
									l122.057-0.538c24.803-0.11,44.996,19.907,45.105,44.71c0.055,12.39-4.916,23.65-13.01,31.816
									C1416.446,2284.879,1405.23,2289.949,1392.84,2290.004z"/>
								
									<linearGradient id="SVGID_00000110459017701651930720000007028984102085263009_" gradientUnits="userSpaceOnUse" x1="-1306.8556" y1="5093.4087" x2="-662.2102" y2="4033.387" gradientTransform="matrix(0.0044 1 -1 0.0044 564.6613 19.9631)">
									<stop  offset="0" style="stop-color:#CE1567"/>
									<stop  offset="1" style="stop-color:#7A1DBC"/>
								</linearGradient>
								<path style="fill:url(#SVGID_00000110459017701651930720000007028984102085263009_);" d="M1331.812,2290.273l-61.029,0.269
									c-24.803,0.109-44.996-19.907-45.105-44.71c-0.055-12.39,4.916-23.651,13.01-31.816c8.094-8.166,19.31-13.235,31.7-13.29
									l61.028-0.269L1331.812,2290.273z"/>
							</g>
						</g>
						<path style="opacity:0.3;fill:#FFFFFF;" d="M1057.25,2204.834c0,3.692-2.993,6.685-6.685,6.685H866.74
							c-3.692,0-6.685-2.993-6.685-6.685l0,0c0-3.692,2.993-6.685,6.685-6.685h183.825
							C1054.257,2198.149,1057.25,2201.142,1057.25,2204.834L1057.25,2204.834z"/>
						<path style="opacity:0.3;fill:#FFFFFF;" d="M1428.243,2204.834c0,3.692-2.993,6.685-6.684,6.685h-183.825
							c-3.692,0-6.685-2.993-6.685-6.685l0,0c0-3.692,2.993-6.685,6.685-6.685h183.825
							C1425.25,2198.149,1428.243,2201.142,1428.243,2204.834L1428.243,2204.834z"/>
					</g>
				</g>
			</g>
		</g>
		<g>
			
				<linearGradient id="SVGID_00000083779478807598184030000011492811990361440178_" gradientUnits="userSpaceOnUse" x1="3178.5044" y1="1662.3464" x2="1816.2529" y2="3451.6257" gradientTransform="matrix(0.9998 0.0208 -0.0208 0.9998 89.4284 -28.4913)">
				<stop  offset="0" style="stop-color:#2B3582"/>
				<stop  offset="1" style="stop-color:#150E42"/>
			</linearGradient>
			<path style="fill:url(#SVGID_00000083779478807598184030000011492811990361440178_);" d="M2256.452,1653.008l859.21,17.856
				c47.402,0.985,85.717,38.945,87.143,86.336l37.533,1247.012c1.116,37.084-28.695,67.727-65.797,67.63l-985.135-2.568
				c-34.862-0.091-62.869-28.761-62.145-63.615l26.054-1253.715C2154.477,1696.143,2200.652,1651.849,2256.452,1653.008z"/>
			<path style="fill:#FFFFFF;" d="M2334.85,3051.352c-0.348,0.137-0.727,0.207-1.123,0.194l-110.161-3.715
				c-37.084-1.25-66.626-32.449-65.856-69.546l3.458-166.365c0.035-1.554,1.32-2.783,2.87-2.752c1.552,0.032,2.785,1.317,2.753,2.87
				l-3.458,166.365c-0.708,34.037,26.397,62.662,60.422,63.809l110.161,3.715c1.552,0.053,2.768,1.353,2.715,2.905
				C2336.592,3049.985,2335.861,3050.954,2334.85,3051.352z"/>
			<path style="fill:#FFFFFF;" d="M2166.079,2763.062c-0.336,0.132-0.703,0.203-1.087,0.195c-1.552-0.032-2.785-1.317-2.753-2.87
				l0.559-26.941c0.035-1.554,1.32-2.786,2.87-2.752c1.552,0.032,2.785,1.317,2.753,2.87l-0.559,26.942
				C2167.837,2761.673,2167.102,2762.659,2166.079,2763.062z"/>
			
				<linearGradient id="SVGID_00000050635462130252904530000014855094396855351690_" gradientUnits="userSpaceOnUse" x1="3123.7644" y1="1418.3467" x2="2191.5022" y2="3433.4709">
				<stop  offset="0" style="stop-color:#53D8FF"/>
				<stop  offset="1" style="stop-color:#3840F7"/>
			</linearGradient>
			<path style="fill:url(#SVGID_00000050635462130252904530000014855094396855351690_);" d="M2259.305,1642.966
				c117.002,18.35,519.457,75.946,853.579,57.271c15.237-0.852,28.2,10.949,28.693,26.202l40.498,1252.629
				c0.556,17.175-12.851,31.574-30.022,32.233c-140.475,5.387-718.948,25.476-924.594-0.394
				c-12.516-1.575-21.818-12.333-21.63-24.946l19.581-1314.415C2225.676,1653.69,2241.663,1640.199,2259.305,1642.966z"/>
			<path style="opacity:0.5;fill:#FFFFFF;" d="M2271.197,1675.684c112.596,17.659,499.896,73.087,821.438,55.115
				c14.664-0.82,27.138,10.537,27.613,25.215l38.973,1205.46c0.534,16.529-12.367,30.386-28.892,31.02
				c-135.184,5.184-691.876,24.516-889.778-0.379c-12.045-1.515-20.996-11.869-20.815-24.007l18.844-1264.92
				C2238.834,1686.005,2254.22,1673.022,2271.197,1675.684z"/>
			<g style="opacity:0.6;">
				<path style="fill:#FFFFFF;" d="M3044.413,1835.293c7.352,0.153,13.333-3.622,13.293-8.388c-0.04-4.766-6.084-8.898-13.432-9.181
					l-303.175-11.707c-7.348-0.284-11.629,4.743-9.514,11.17c2.115,6.427,9.859,11.81,17.211,11.963L3044.413,1835.293z"/>
			</g>
			<g style="opacity:0.6;">
				<path style="fill:#FFFFFF;" d="M2740.099,1854.142c-7.347-0.284-11.629,4.743-9.515,11.17
					c2.115,6.427,9.859,11.811,17.211,11.963l295.618,6.144c7.351,0.153,13.333-3.622,13.293-8.388s-6.085-8.898-13.432-9.181
					L2740.099,1854.142z"/>
			</g>
			<g style="opacity:0.6;">
				<path style="fill:#FFFFFF;" d="M2739.085,1902.967c-7.348-0.284-11.629,4.743-9.514,11.17
					c2.115,6.427,9.86,11.811,17.211,11.963l295.617,6.144c7.351,0.153,13.333-3.622,13.293-8.388
					c-0.04-4.766-6.085-8.898-13.432-9.181L2739.085,1902.967z"/>
			</g>
			<g>
				<g style="opacity:0.6;">
					<path style="fill:#FFFFFF;" d="M2327.473,2034.699c7.123,1.826,18.965,3.445,26.317,3.597l686.049,14.258
						c7.351,0.153,14.394,0.082,15.65-0.157c0,0,0,0,0.813-0.832c0.813-0.833,0.813-0.833,0.813-0.833
						c0.208-1.261,0.33-3.378,0.27-4.704c-0.06-1.326-0.98-4.241-2.045-6.479c-1.065-2.238-12.484-4.371-19.833-4.582
						l-693.07-19.869c-7.35-0.211-16.259,0.398-19.797,1.352c0,0,0,0-1.524,2.97c-1.523,2.971-1.204,6.554,0.82,9.208
						C2326.346,2034.41,2327.473,2034.699,2327.473,2034.699z"/>
				</g>
				<g style="opacity:0.6;">
					<path style="fill:#FFFFFF;" d="M3053.997,2084.501c-1.094-0.499-8.003-1.079-15.354-1.289l-698.937-20.039
						c-7.35-0.211-15.983,0.323-19.184,1.187c0,0,0,0-1.378,2.689c-1.379,2.688-1.379,2.688-1.379,2.688
						c1.167,3.104,2.293,5.869,2.504,6.145c0.211,0.276,3.009,2.665,6.218,5.308c3.209,2.643,19.414,5.088,26.765,5.241
						l685.585,14.248c7.351,0.153,14.394,0.083,15.65-0.156c0,0,0,0,0.813-0.833c0.812-0.833,0.812-0.833,0.812-0.833
						c0.208-1.262,0.288-4.309,0.176-6.772C3056.178,2089.623,3055.092,2085,3053.997,2084.501z"/>
				</g>
			</g>
			<g>
				<g style="opacity:0.6;">
					<path style="fill:#FFFFFF;" d="M2327.473,2156.882c7.123,1.826,18.965,3.445,26.317,3.598l686.049,14.258
						c7.351,0.153,14.394,0.082,15.65-0.158c0,0,0,0,0.813-0.832c0.813-0.833,0.813-0.833,0.813-0.833
						c0.208-1.262,0.33-3.379,0.27-4.704s-0.98-4.241-2.045-6.479s-12.484-4.371-19.833-4.582l-693.07-19.869
						c-7.35-0.211-16.259,0.398-19.797,1.352c0,0,0,0-1.524,2.97c-1.523,2.971-1.204,6.554,0.82,9.208
						C2326.346,2156.593,2327.473,2156.882,2327.473,2156.882z"/>
				</g>
				<g style="opacity:0.6;">
					<path style="fill:#FFFFFF;" d="M3053.997,2206.684c-1.094-0.499-8.003-1.079-15.354-1.29l-698.937-20.039
						c-7.35-0.211-15.983,0.323-19.184,1.187c0,0,0,0-1.378,2.688c-1.379,2.689-1.379,2.689-1.379,2.689
						c1.167,3.103,2.293,5.868,2.504,6.145c0.211,0.277,3.009,2.665,6.218,5.309c3.209,2.643,19.414,5.088,26.765,5.241
						l685.585,14.248c7.351,0.153,14.394,0.082,15.65-0.156c0,0,0,0,0.813-0.833c0.812-0.833,0.812-0.833,0.812-0.833
						c0.208-1.261,0.288-4.309,0.176-6.772C3056.178,2211.805,3055.092,2207.183,3053.997,2206.684z"/>
				</g>
			</g>
			<g>
				<g style="opacity:0.6;">
					<path style="fill:#FFFFFF;" d="M2327.473,2279.065c7.123,1.826,18.965,3.445,26.317,3.598l686.049,14.258
						c7.351,0.153,14.394,0.082,15.65-0.157c0,0,0,0,0.813-0.831c0.813-0.833,0.813-0.833,0.813-0.833
						c0.208-1.261,0.33-3.378,0.27-4.704c-0.06-1.326-0.98-4.241-2.045-6.479c-1.065-2.238-12.484-4.371-19.833-4.581l-693.07-19.87
						c-7.35-0.211-16.259,0.398-19.797,1.352c0,0,0,0-1.524,2.97c-1.523,2.972-1.204,6.554,0.82,9.208
						C2326.346,2278.776,2327.473,2279.065,2327.473,2279.065z"/>
				</g>
				<g style="opacity:0.6;">
					<path style="fill:#FFFFFF;" d="M3053.997,2328.867c-1.094-0.499-8.003-1.079-15.354-1.29l-698.937-20.038
						c-7.35-0.211-15.983,0.323-19.184,1.187c0,0,0,0-1.378,2.688c-1.379,2.688-1.379,2.688-1.379,2.688
						c1.167,3.103,2.293,5.868,2.504,6.145c0.211,0.276,3.009,2.665,6.218,5.308c3.209,2.643,19.414,5.088,26.765,5.241
						l685.585,14.248c7.351,0.153,14.394,0.082,15.65-0.156c0,0,0,0,0.813-0.833c0.812-0.832,0.812-0.832,0.812-0.832
						c0.208-1.262,0.288-4.309,0.176-6.772C3056.178,2333.988,3055.092,2329.365,3053.997,2328.867z"/>
				</g>
			</g>
			
				<linearGradient id="SVGID_00000123430640997218462620000008621920291209741735_" gradientUnits="userSpaceOnUse" x1="2780.3625" y1="1337.8696" x2="2385.0759" y2="1857.8599" gradientTransform="matrix(0.9998 0.0208 -0.0208 0.9998 89.4284 -28.4913)">
				<stop  offset="0" style="stop-color:#2B3582"/>
				<stop  offset="1" style="stop-color:#150E42"/>
			</linearGradient>
			<path style="fill:url(#SVGID_00000123430640997218462620000008621920291209741735_);" d="M2742.876,1493.199
				c-30.587-22.236-57.582-22.369-76.696-17.158c-17.435,4.753-29.015,21.251-27.74,39.278l6.334,89.592l97.308,10.677
				C2742.082,1615.588,2802.862,1536.808,2742.876,1493.199z M2698.505,1564.449c-13.425-0.279-24.082-11.388-23.803-24.813
				s11.388-24.083,24.813-23.804c13.426,0.279,24.083,11.389,23.803,24.814C2723.04,1554.072,2711.93,1564.729,2698.505,1564.449z"
				/>
			<path style="fill:#FFFFFF;" d="M2656.377,1567.76c-0.26,0.103-0.539,0.168-0.833,0.189c-1.549,0.108-2.893-1.056-3.003-2.606
				l-1.01-14.269c-0.108-1.548,1.063-2.888,2.606-3.003c1.549-0.108,2.893,1.056,3.003,2.606l1.01,14.268
				C2658.238,1566.201,2657.488,1567.323,2656.377,1567.76z M2654.398,1539.799c-0.261,0.103-0.54,0.168-0.833,0.189
				c-1.549,0.108-2.893-1.056-3.003-2.606l-0.766-10.833c-1.231-17.392,10.019-33.298,26.77-37.89
				c11.776-3.211,23.849-3.456,35.882-0.729c1.513,0.342,2.462,1.848,2.119,3.361c-0.344,1.513-1.848,2.471-3.363,2.121
				c-11.124-2.521-22.281-2.295-33.16,0.673c-14.14,3.855-23.679,17.347-22.639,32.067l0.766,10.834
				C2656.26,1538.24,2655.51,1539.362,2654.398,1539.799z"/>
			
				<linearGradient id="SVGID_00000062870339971802289030000005774482947498439314_" gradientUnits="userSpaceOnUse" x1="2823.7278" y1="1370.8248" x2="2428.4333" y2="1890.8254" gradientTransform="matrix(0.9998 0.0208 -0.0208 0.9998 89.4284 -28.4913)">
				<stop  offset="0" style="stop-color:#2B3582"/>
				<stop  offset="1" style="stop-color:#150E42"/>
			</linearGradient>
			<path style="fill:url(#SVGID_00000062870339971802289030000005774482947498439314_);" d="M2510.519,1659.934l0.935-44.958
				c0.323-15.52,13.444-27.682,28.943-26.828l309.747,17.061c13.746,0.757,24.661,11.847,25.199,25.604l1.693,43.253
				L2510.519,1659.934z"/>
			<path style="fill:#FFFFFF;" d="M2628.328,1607.165c-0.336,0.132-0.703,0.203-1.087,0.195l-13.33-0.278
				c-1.551-0.032-2.784-1.317-2.752-2.87c0.033-1.553,1.323-2.784,2.87-2.753l13.33,0.278c1.551,0.033,2.784,1.317,2.752,2.87
				C2630.086,1605.776,2629.352,1606.762,2628.328,1607.165z"/>
			<path style="fill:#FFFFFF;" d="M2528.669,1646.43c-0.336,0.132-0.702,0.203-1.087,0.195c-1.551-0.032-2.784-1.317-2.752-2.87
				l0.376-18.187c0.296-14.302,12.18-25.705,26.481-25.405l49.01,1.018c1.551,0.032,2.784,1.317,2.752,2.87
				c-0.032,1.556-1.316,2.787-2.87,2.753l-49.009-1.019c-11.206-0.232-20.51,8.695-20.743,19.9l-0.376,18.187
				C2530.427,1645.042,2529.692,1646.027,2528.669,1646.43z"/>
			
				<linearGradient id="SVGID_00000068640102277349376080000014642302945467487388_" gradientUnits="userSpaceOnUse" x1="2688.7898" y1="1084.8448" x2="2688.7898" y2="1954.3036">
				<stop  offset="0" style="stop-color:#53D8FF"/>
				<stop  offset="1" style="stop-color:#3840F7"/>
			</linearGradient>
			<path style="fill:url(#SVGID_00000068640102277349376080000014642302945467487388_);" d="M2413.737,1641.461l542.037,11.25
				c19.49,0.405,35.861,14.777,38.787,34.05l0.403,2.66c3.205,21.111-13.39,40.014-34.739,39.57l-556.098-11.556
				c-12.776-0.266-22.735-11.159-21.856-23.908l1.713-24.865C2385.057,1653.109,2398.151,1641.138,2413.737,1641.461z"/>
			<g>
				<g>
					
						<linearGradient id="SVGID_00000009548060738480546140000016426767747444156093_" gradientUnits="userSpaceOnUse" x1="2472.4004" y1="1914.8855" x2="2331.1135" y2="2893.0271">
						<stop  offset="0" style="stop-color:#A737D5"/>
						<stop  offset="1" style="stop-color:#EF497A"/>
					</linearGradient>
					<path style="fill:url(#SVGID_00000009548060738480546140000016426767747444156093_);" d="M2375.402,2690.955
						c-6.174,0-11.169-4.996-11.169-11.17v-186.742c0-6.174,4.995-11.17,11.169-11.17s11.17,4.996,11.17,11.17v186.742
						C2386.572,2685.959,2381.576,2690.955,2375.402,2690.955z"/>
				</g>
				<g>
					
						<linearGradient id="SVGID_00000066505783666879217000000006299767212722896780_" gradientUnits="userSpaceOnUse" x1="2520.1978" y1="1933.4651" x2="2381.6421" y2="2892.698">
						<stop  offset="0" style="stop-color:#A737D5"/>
						<stop  offset="1" style="stop-color:#EF497A"/>
					</linearGradient>
					<path style="fill:url(#SVGID_00000066505783666879217000000006299767212722896780_);" d="M2456.032,2592.539h-80.631
						c-6.174,0-11.169-5.524-11.169-11.698c0-6.174,4.995-11.698,11.169-11.698h80.631c17.125,0,28.372-14.994,28.372-32.119v-4.886
						c0-17.125-11.246-23.155-28.372-23.155h-80.631c-6.174,0-11.169-10.538-11.169-16.711c0-6.174,4.995-16.711,11.169-16.711
						h80.631c29.451,0,51.768,27.127,51.768,56.578v4.886C2507.8,2566.474,2485.484,2592.539,2456.032,2592.539z"/>
				</g>
				<g>
					
						<linearGradient id="SVGID_00000150070943961234249300000006253936197080316296_" gradientUnits="userSpaceOnUse" x1="2620.8872" y1="1936.3337" x2="2479.6001" y2="2914.4756">
						<stop  offset="0" style="stop-color:#A737D5"/>
						<stop  offset="1" style="stop-color:#EF497A"/>
					</linearGradient>
					<path style="fill:url(#SVGID_00000150070943961234249300000006253936197080316296_);" d="M2600.66,2776.821
						c-3,0-6-1.2-8.203-3.599l-172.202-186.393c-4.188-4.516-3.905-11.584,0.622-15.773c4.505-4.21,11.584-3.971,15.784,0.632
						l172.202,186.393c4.188,4.516,3.905,11.584-0.622,15.773C2606.092,2775.84,2603.375,2776.821,2600.66,2776.821z"/>
				</g>
				<g>
					
						<linearGradient id="SVGID_00000000912827588340408360000011520701941055675548_" gradientUnits="userSpaceOnUse" x1="2635.8174" y1="1938.4907" x2="2494.5303" y2="2916.6326">
						<stop  offset="0" style="stop-color:#A737D5"/>
						<stop  offset="1" style="stop-color:#EF497A"/>
					</linearGradient>
					<path style="fill:url(#SVGID_00000000912827588340408360000011520701941055675548_);" d="M2452.891,2776.821
						c-2.901,0-5.803-1.113-7.985-3.359c-4.319-4.407-4.232-11.475,0.175-15.795l147.768-144.507
						c4.418-4.276,11.508-4.232,15.795,0.175c4.319,4.407,4.232,11.475-0.175,15.794l-147.768,144.507
						C2458.531,2775.752,2455.706,2776.821,2452.891,2776.821z"/>
				</g>
			</g>
			<path style="fill:#FFFFFF;" d="M2711.69,2553.522c0,0,0.482-0.457,1.416-1.344c0.881-0.885,2.188-2.198,3.894-3.912
				c3.46-3.591,8.534-8.859,14.992-15.562c6.51-6.699,14.531-14.755,24.175-23.579c4.821-4.413,10.067-9.003,15.883-13.544
				c5.847-4.492,12.148-9.113,19.576-12.809c3.687-1.861,7.697-3.492,12.169-4.271c4.41-0.721,9.59-0.671,14.023,2.499l1.285,0.979
				c0.432,0.33,0.948,0.943,1.405,1.419c1.031,1.016,1.53,2.11,2.222,3.201c1.105,2.272,1.746,4.675,2.051,7.071
				c0.551,4.795,0.022,9.519-0.873,14.13c-0.911,4.61-2.267,9.161-3.723,13.62c-1.461,4.48-2.999,9.051-4.903,13.543
				c-1.905,4.495-4.121,8.952-6.839,13.2l-2.159,3.122c-0.731,1.036-1.639,2.083-2.518,3.012c-0.907,0.947-1.873,1.858-2.987,2.695
				c-1.136,0.801-2.342,1.677-4.281,1.919c-0.442,0.096-1.058-0.041-1.567-0.118c-0.502-0.209-1.109-0.421-1.465-0.789
				c-0.864-0.755-1.234-1.405-1.596-2.397c-0.433-0.896-0.651-3.254-0.389-4.485c0.422-2.899,1.621-5.343,2.908-7.653
				c2.657-4.59,5.941-8.634,9.671-12.404c7.644-7.037,15.447-13.778,23.057-20.948c3.841-3.556,7.698-7.126,11.565-10.706
				l5.809-5.374c1.985-1.763,4.111-3.431,6.164-5.154c1.041-0.847,2.061-1.724,3.121-2.549l3.284-2.332
				c2.222-1.509,4.314-3.213,6.649-4.562c4.668-2.731,9.255-5.524,14.119-7.795c4.851-2.333,9.926-4.472,15.443-5.452
				c5.465-0.901,11.639-0.755,16.506,3.313c4.525,3.855,6.834,9.194,8.42,14.355c1.534,5.238,2.329,10.578,2.589,15.927
				c0.131,5.47-0.348,10.684-1.079,15.91c-0.741,5.207-1.787,10.345-3.216,15.368c-1.434,5.018-3.23,9.944-5.752,14.554
				c-2.526,4.544-5.779,9.051-10.715,11.714c-2.433,1.317-5.249,2.022-8.006,1.98c-0.403-0.008-0.563,0.016-1.164-0.022
				l-0.917-0.122l-1.83-0.244c-1.201-0.145-2.707-0.703-4.007-1.125c-2.572-1.13-4.97-3.284-6-6.071
				c-1.098-2.772-0.887-5.602-0.427-8.131c0.98-5.135,3.279-9.551,5.788-13.684c1.318-2.046,2.621-4.034,4.267-5.882
				c1.399-1.753,3.219-3.532,5.025-5.143c7.281-6.361,16.537-9.47,25.317-10.446c8.86-1.022,17.417-0.06,25.372,1.485
				c15.674,3.177,29.906,6.926,42.462,9.571c6.28,1.262,12.164,2.146,17.529,2.22c5.387,0.179,10.135-0.973,14.227-2.485
				c8.174-3.26,13.643-8.114,17.411-11.125c3.668-3.253,5.424-5.198,5.424-5.198l0.073-0.081c0.977-1.08,2.646-1.165,3.727-0.189
				c1.081,0.978,1.166,2.646,0.189,3.728c-0.112,0.123-0.245,0.242-0.373,0.34c0,0-2.174,1.634-5.897,5.067
				c-3.978,3.121-9.685,8.226-18.891,11.854c-4.583,1.684-10.074,2.928-15.934,2.7c-5.851-0.116-11.996-1.098-18.405-2.422
				c-12.785-2.776-26.819-6.568-42.387-9.82c-7.646-1.536-15.817-2.483-24.08-1.573c-8.208,0.872-16.597,3.661-23.21,9.369
				c-1.599,1.426-3.116,2.831-4.625,4.687c-1.453,1.595-2.733,3.512-3.959,5.395c-2.369,3.823-4.514,8.001-5.345,12.324
				c-0.414,2.128-0.525,4.342,0.207,6.117c0.675,1.79,2.093,3.119,3.98,4.011c0.477,0.179,0.976,0.304,1.46,0.471
				c0.49,0.156,0.935,0.358,1.594,0.407l1.829,0.254l0.916,0.128c0.014-0.019,0.473-0.006,0.687-0.009
				c2.177,0.042,4.326-0.478,6.283-1.514c3.954-2.074,6.985-6.003,9.317-10.234c2.342-4.275,4.074-8.987,5.453-13.822
				c1.379-4.843,2.398-9.84,3.12-14.898c0.714-5.038,1.169-10.245,1.051-15.241c-0.244-5.096-1.014-10.222-2.445-15.099
				c-1.454-4.818-3.653-9.59-7.293-12.655c-0.929-0.717-1.916-1.387-2.87-1.789c-0.409-0.27-1.108-0.435-1.737-0.622l-0.955-0.278
				c-0.023,0.029-0.526-0.043-0.765-0.061c-2.385-0.356-4.878-0.265-7.347,0.189c-4.96,0.873-9.804,2.879-14.507,5.147
				c-4.781,2.229-9.281,4.977-13.782,7.604c-2.265,1.306-4.308,2.974-6.472,4.441l-3.201,2.27c-1.031,0.801-2.02,1.654-3.032,2.478
				c-2.002,1.68-4.046,3.275-6.012,5.017l-5.81,5.374c-3.865,3.577-7.719,7.144-11.558,10.696
				c-7.627,7.18-15.539,14.022-22.99,20.874c-3.481,3.51-6.673,7.455-9.083,11.633c-1.176,2.084-2.147,4.312-2.413,6.408
				c-0.044,0.511-0.118,1.071-0.047,1.394c0.034,0.209-0.042,0.332,0.047,0.625l0.291,0.893c0.041,0.174,0.343,0.645,0.442,0.68
				c0.13,0.104,0.161,0.124,0.444,0.096c0.555-0.052,1.536-0.573,2.372-1.232c0.863-0.662,1.7-1.461,2.489-2.308
				c1.617-1.654,2.828-3.656,4.179-5.638c2.513-4.033,4.58-8.307,6.365-12.662c1.79-4.365,3.23-8.815,4.622-13.263
				c1.4-4.466,2.635-8.823,3.445-13.19c0.799-4.344,1.19-8.705,0.673-12.737c-0.279-2.007-0.834-3.884-1.653-5.544
				c-0.496-0.725-0.94-1.651-1.503-2.13c-0.304-0.29-0.426-0.576-0.852-0.9l-1.297-0.962l-0.323-0.24
				c-0.094-0.073,0.232,0.168,0.022,0.034l-0.152-0.067l-0.604-0.273l-1.191-0.566c-0.884-0.157-1.706-0.473-2.605-0.55
				c-1.794-0.166-3.646-0.059-5.491,0.318c-3.697,0.73-7.3,2.259-10.667,4.074c-6.785,3.576-12.792,8.182-18.34,12.671
				c-5.534,4.542-10.563,9.161-15.191,13.61c-9.224,8.941-16.813,17.236-23.037,24.095c-6.18,6.949-11.035,12.408-14.346,16.13
				c-1.653,1.864-3.001,3.337-3.939,4.34c-0.891,0.931-1.351,1.411-1.351,1.411c-1.662,1.732-4.414,1.79-6.146,0.128
				c-1.733-1.662-1.791-4.414-0.129-6.146c0.043-0.046,0.087-0.09,0.132-0.133L2711.69,2553.522z"/>
			<path style="opacity:0.6;fill:#FFFFFF;" d="M3052.592,2597.8c0,2.632-2.134,4.766-4.766,4.766h-291.273
				c-2.632,0-4.766-2.134-4.766-4.766v-0.495c0-2.632,2.134-4.766,4.766-4.766h291.273c2.632,0,4.766,2.134,4.766,4.766V2597.8z"/>
		</g>
		<g>
			
				<linearGradient id="SVGID_00000100368201066731642240000000859033506926137728_" gradientUnits="userSpaceOnUse" x1="-1087.9174" y1="1593.618" x2="-987.9977" y2="1844.2645" gradientTransform="matrix(1 0 0 1 2779.7729 0)">
				<stop  offset="0" style="stop-color:#2B3582"/>
				<stop  offset="1" style="stop-color:#150E42"/>
			</linearGradient>
			<path style="fill:url(#SVGID_00000100368201066731642240000000859033506926137728_);" d="M1751.102,1728.446
				c0,0,33.686,16.385,39.879,35.207c4.969,15.102,42.217,17.049,45.896,46.751c1.9,15.335,13.248,27.617,28.522,29.958
				c38.042,5.831,96.667,25.585,106.048,91.634c7.16,50.414-18.541,69.531-45.513,76.147c-19.81,4.86-32.975,24.128-28.968,44.129
				c3.843,19.183-1.888,41.359-35.122,58.896c-74.474,39.297-148.848-93.098-148.848-93.098l-15.242-231.171L1751.102,1728.446z"/>
			
				<linearGradient id="SVGID_00000034781821707028177200000008080379567623274923_" gradientUnits="userSpaceOnUse" x1="1336.8978" y1="1868.6355" x2="1671.3842" y2="1868.6355">
				<stop  offset="0" style="stop-color:#C4421B"/>
				<stop  offset="1" style="stop-color:#5C0E16"/>
			</linearGradient>
			<path style="fill:url(#SVGID_00000034781821707028177200000008080379567623274923_);" d="M1345.869,1673.642
				c0,0,148.697,235.197,325.515,280.626c0,0-34.453,98.13-61.047,109.361c0,0-217.536-181.509-273.44-356.566L1345.869,1673.642z"
				/>
			
				<linearGradient id="SVGID_00000085957904716744953750000012795578536140026284_" gradientUnits="userSpaceOnUse" x1="-722.6539" y1="3198.2825" x2="-637.9258" y2="3198.2825" gradientTransform="matrix(1 0 0 1 2779.7729 0)">
				<stop  offset="0" style="stop-color:#A737D5"/>
				<stop  offset="1" style="stop-color:#EF497A"/>
			</linearGradient>
			<path style="fill:url(#SVGID_00000085957904716744953750000012795578536140026284_);" d="M2057.22,3177.962l4.82,39.618
				c0.914,7.516,6.832,13.459,14.354,14.318c12.7,1.451,33.082,2.938,53.023,0.83c8.753-0.925,14.435-9.788,11.769-18.177
				c-4.861-15.294-13.754-38.253-26.576-51.763h-43.949C2062.534,3162.788,2056.239,3169.896,2057.22,3177.962z"/>
			
				<linearGradient id="SVGID_00000097499625895710543980000000593385759521826724_" gradientUnits="userSpaceOnUse" x1="1679.9728" y1="2969.2944" x2="1797.8041" y2="2969.2944">
				<stop  offset="0" style="stop-color:#C4421B"/>
				<stop  offset="1" style="stop-color:#5C0E16"/>
			</linearGradient>
			<path style="fill:url(#SVGID_00000097499625895710543980000000593385759521826724_);" d="M1712.997,2713.86l-7.418,43.636
				c0,0,24.841,251.619,29.26,352.267c0.693,15.78-3.389,31.374-11.672,44.823l-43.194,70.144l109.778-64.779l2.185-13.396
				l-17.971-24.708l23.539-281.876c1.383-16.559-2.034-33.166-9.842-47.834l-22.707-42.657L1712.997,2713.86z"/>
			
				<linearGradient id="SVGID_00000008114151828358876080000005615153190101641091_" gradientUnits="userSpaceOnUse" x1="-1116.293" y1="3182.8132" x2="-979.1965" y2="3182.8132" gradientTransform="matrix(1 0 0 1 2779.7729 0)">
				<stop  offset="0" style="stop-color:#A737D5"/>
				<stop  offset="1" style="stop-color:#EF497A"/>
			</linearGradient>
			<path style="fill:url(#SVGID_00000008114151828358876080000005615153190101641091_);" d="M1672.744,3234.89h35.032
				c6.557,0,12.741-3.011,16.741-8.207c10.921-14.191,33.548-41.877,44.368-42.6c14.565-0.973,12.702,50.807,12.702,50.807h8.164
				l10.342-64.342c2.602-16.189-5.449-32.227-19.986-39.812c0,0-3.33,24.623-21.383,35.514
				c-18.053,10.891-73.465,49.895-73.465,49.895s-6.787-0.968-14.238,0.379C1659.967,3218.522,1661.511,3234.89,1672.744,3234.89z"
				/>
			
				<linearGradient id="SVGID_00000115503542330147260740000000193665908666418607_" gradientUnits="userSpaceOnUse" x1="1863.3567" y1="2962.9688" x2="2126.4568" y2="2962.9688">
				<stop  offset="0" style="stop-color:#C4421B"/>
				<stop  offset="1" style="stop-color:#5C0E16"/>
			</linearGradient>
			<path style="fill:url(#SVGID_00000115503542330147260740000000193665908666418607_);" d="M1863.357,2734.585
				c0,0,145.526,276.049,168.66,339.076c23.133,63.027,31.237,115.605,31.547,120.584c0.485,7.78,10.161,15.242,36.835,15.242
				c13.766,0,20.507-5.518,23.808-10.859c2.816-4.557,2.962-10.259,0.589-15.061c-8.418-17.036-35.132-71.48-45.026-96.173
				c-11.813-29.482-37.222-163.092-51.158-209.546s-29.687-96.846-90.373-143.262
				C1938.239,2734.585,1896.58,2693.783,1863.357,2734.585z"/>
			
				<linearGradient id="SVGID_00000050662142191467465090000009267771194644211887_" gradientUnits="userSpaceOnUse" x1="-1077.6615" y1="2095.323" x2="-1016.6938" y2="2660.9709" gradientTransform="matrix(1 0 0 1 2779.7729 0)">
				<stop  offset="0" style="stop-color:#53D8FF"/>
				<stop  offset="1" style="stop-color:#3840F7"/>
			</linearGradient>
			<path style="fill:url(#SVGID_00000050662142191467465090000009267771194644211887_);" d="M1771.425,2282.264
				c-37.539-159.069,57.559-249.036,57.559-249.036c-60.005-57.598-169.334-83.807-169.334-83.807s-104.323,76.27-91.947,135.967
				c7.254,34.989,73.329,209.578,73.329,209.578S1702.132,2323.882,1771.425,2282.264z"/>
			
				<linearGradient id="SVGID_00000174573502633685359310000003964104619069602718_" gradientUnits="userSpaceOnUse" x1="1878.0358" y1="2234.5156" x2="1693.4543" y2="2839.5342">
				<stop  offset="0" style="stop-color:#CE1567"/>
				<stop  offset="1" style="stop-color:#7A1DBC"/>
			</linearGradient>
			<path style="fill:url(#SVGID_00000174573502633685359310000003964104619069602718_);" d="M1854.655,2361.014
				c-15.277-46.024-83.23-78.75-83.23-78.75c-69.293,41.618-130.393,12.702-130.393,12.702s-13.702,52.375-4.245,101.048
				c9.457,48.673,68.792,361.482,68.792,361.482c93.492,18.943,237.28-19.059,237.28-19.059
				C1883.308,2632.708,1869.932,2407.038,1854.655,2361.014z"/>
			
				<linearGradient id="SVGID_00000070813120640369985850000013146733496237748414_" gradientUnits="userSpaceOnUse" x1="-1094.045" y1="2127.7256" x2="-1071.141" y2="1960.1646" gradientTransform="matrix(1 0 0 1 2779.7729 0)">
				<stop  offset="0" style="stop-color:#C4421B"/>
				<stop  offset="1" style="stop-color:#5C0E16"/>
			</linearGradient>
			<path style="fill:url(#SVGID_00000070813120640369985850000013146733496237748414_);" d="M1727.851,1844.302l30.52,137.091
				c2.922,12.075-8.086,10.099-20.294,7.797c-19.993-3.769-45.761-11.532-54.375-27.089c-0.877-1.583-1.315-3.373-1.562-5.166
				l-13.112-95.062c-1.04-7.542,3.037-14.862,9.997-17.948l25.302-11.219C1714.069,1828.386,1725.345,1833.944,1727.851,1844.302z"
				/>
			
				<linearGradient id="SVGID_00000076580982534160069840000008715657373752509829_" gradientUnits="userSpaceOnUse" x1="1834.4231" y1="2412.4951" x2="1868.6045" y2="2002.3146">
				<stop  offset="0" style="stop-color:#C4421B"/>
				<stop  offset="1" style="stop-color:#5C0E16"/>
			</linearGradient>
			<path style="fill:url(#SVGID_00000076580982534160069840000008715657373752509829_);" d="M1828.984,2033.228
				c0,0,213.016,152.402,27.243,312.544c0,0-7.084,8.014-21.019,12.179c-7.035,2.103-27.847,17.848-38.398,26.058
				c-3.392,2.639-8.293,1.741-10.573-1.902c-1.787-2.854-1.997-6.422-0.557-9.467l26.372-55.765
				c7.323-6.834,18.533-7.32,26.419-1.143c5.031,3.94,12.401,2.29,15.217-3.446c14.361-29.249,41.478-115.272-69.511-212.476
				c-4.172-3.654-5.228-9.698-2.667-14.617C1789.307,2070.213,1807.142,2040.465,1828.984,2033.228z"/>
			<g>
				
					<linearGradient id="SVGID_00000021084949460720536670000015206549922475928743_" gradientUnits="userSpaceOnUse" x1="-1282.036" y1="1810.6581" x2="-1082.188" y2="1454.9958" gradientTransform="matrix(0.9809 -0.1943 0.1943 0.9809 2550.6829 -99.2406)">
					<stop  offset="0" style="stop-color:#C4421B"/>
					<stop  offset="1" style="stop-color:#5C0E16"/>
				</linearGradient>
				<path style="fill:url(#SVGID_00000021084949460720536670000015206549922475928743_);" d="M1669.393,1719.33
					c0,0-32.492,21.995-46.454,78.006c-13.962,56.012,8.728,76.104,31.986,74.872c23.258-1.231,56.98-8.424,86.199-48.607
					C1770.342,1783.419,1711.972,1692.454,1669.393,1719.33z"/>
				
					<linearGradient id="SVGID_00000150079366728625088780000002627722272933306543_" gradientUnits="userSpaceOnUse" x1="-1239.0569" y1="1500.9329" x2="-1139.1332" y2="1751.5896" gradientTransform="matrix(0.9809 -0.1943 0.1943 0.9809 2550.6829 -99.2406)">
					<stop  offset="0" style="stop-color:#2B3582"/>
					<stop  offset="1" style="stop-color:#150E42"/>
				</linearGradient>
				<path style="fill:url(#SVGID_00000150079366728625088780000002627722272933306543_);" d="M1711.659,1801.01
					c0,0,11.905-80.26-54.731-67.984l-13.474,14.028c0,0-32.616-36.732,3.478-64.498s86.183-20.656,113.895,29.893
					c27.711,50.549,37.769,86.069,14.542,117.48c-23.227,31.411-40.699,4.471-40.699,4.471s10.652-27.186,1.814-38.852
					c-8.839-11.666-20.242,6.784-20.242,6.784L1711.659,1801.01z"/>
				
					<linearGradient id="SVGID_00000117671817406856904630000004295386722094937783_" gradientUnits="userSpaceOnUse" x1="-1239.4967" y1="1834.564" x2="-1039.6489" y2="1478.9021" gradientTransform="matrix(0.9809 -0.1943 0.1943 0.9809 2550.6829 -99.2406)">
					<stop  offset="0" style="stop-color:#C4421B"/>
					<stop  offset="1" style="stop-color:#5C0E16"/>
				</linearGradient>
				<path style="fill:url(#SVGID_00000117671817406856904630000004295386722094937783_);" d="M1720.766,1807.883
					c0,0,5.878-41.293,26.967-29.489c21.089,11.804-7.601,38.573-19.104,47.682L1720.766,1807.883z"/>
			</g>
			<g>
				
					<linearGradient id="SVGID_00000075138039596137947550000013537994146172066730_" gradientUnits="userSpaceOnUse" x1="1254.1482" y1="1655.8773" x2="1370.2234" y2="1655.8773">
					<stop  offset="0" style="stop-color:#C4421B"/>
					<stop  offset="1" style="stop-color:#5C0E16"/>
				</linearGradient>
				<path style="fill:url(#SVGID_00000075138039596137947550000013537994146172066730_);" d="M1346.891,1722.062
					c-0.451,4.852,17.591,8.205,23.333-12.478c-1.578-8.98-4.382-48.302-11.267-54.411c-36.67-32.537-102.059-69.139-102.059-69.139
					c-7.313,11.165,2.278,18.519,2.278,18.519l32.641,22.028c-3.405,11.277-8.374,21.248-8.936,34.123
					c-0.426,9.75,3.176,19.296,9.648,26.692c6.496,7.423,15.241,17.006,23.124,24.282
					C1330.574,1725.449,1346.891,1722.062,1346.891,1722.062z"/>
				
					<linearGradient id="SVGID_00000072988387756287828360000000353514852475016123_" gradientUnits="userSpaceOnUse" x1="263.9348" y1="1672.4454" x2="313.6406" y2="1672.4454" gradientTransform="matrix(-1 0 0 1 1614.3397 0)">
					<stop  offset="0" style="stop-color:#C4421B"/>
					<stop  offset="1" style="stop-color:#5C0E16"/>
				</linearGradient>
				<path style="fill:url(#SVGID_00000072988387756287828360000000353514852475016123_);" d="M1329.16,1706.031l4.989-2.052
					c-0.663-1.614-16.327-39.678-23.903-47.595c-2.879-3.004-4.269-5.577-4.141-7.65c0.064-1.123,0.62-2.231,1.675-3.36
					l26.411,14.125l11.666,18.266l4.547-2.908l-12.422-19.456l-30.937-16.541l-1.397,1.137c-3.129,2.558-4.746,5.306-4.932,8.406
					c-0.228,3.692,1.611,7.522,5.623,11.716C1312.049,1666.08,1324.749,1695.281,1329.16,1706.031z"/>
			</g>
		</g>
		<g>
			<g>
				
					<linearGradient id="SVGID_00000007397665187995257090000005466387773213216447_" gradientUnits="userSpaceOnUse" x1="1602.3799" y1="1385.5811" x2="1466.5765" y2="-139.5833">
					<stop  offset="0" style="stop-color:#53D8FF"/>
					<stop  offset="1" style="stop-color:#3840F7"/>
				</linearGradient>
				<path style="fill:url(#SVGID_00000007397665187995257090000005466387773213216447_);" d="M2419.698,839.979
					c-246.189,0.08-1464.045-3.42-1713.997-4.146c-24.664-0.071-44.478,23.208-43.985,51.666l2.279,131.537
					c0.487,28.109,20.628,50.554,44.985,50.132l1713.501-29.694c24.357-0.422,43.708-23.551,43.22-51.661l-1.693-97.697
					C2463.527,862.299,2443.808,839.971,2419.698,839.979z"/>
				<path style="opacity:0.64;fill:#FFFFFF;" d="M2056.674,947.606L2056.674,947.606c0.496,28.634-22.581,52.114-51.22,52.113
					l-1146.096-0.022c-32.866,0-57.23-30.513-49.955-62.564l4.845-21.347c5.374-23.68,26.636-40.334,50.914-39.879l1141.252,21.369
					C2033.983,897.792,2056.197,920.036,2056.674,947.606z"/>
			</g>
			<g>
				<path style="fill:#FFFFFF;" d="M2312.682,950.291l179.258,176.274c7.518,7.393,7.145,19.624-0.81,26.545l-1.306,1.136
					c-7.039,6.124-17.716,5.347-23.794-1.731l-164.666-191.747L2312.682,950.291z"/>
				<path style="opacity:0.41;fill:#FFFFFF;" d="M2129.245,809.77c-26.248,57.544-0.02,125.861,58.579,152.591
					c58.601,26.73,127.384,1.751,153.633-55.793c26.247-57.543,0.021-125.861-58.58-152.591
					C2224.276,727.247,2155.492,752.226,2129.245,809.77z"/>
				<path style="fill:#FFFFFF;" d="M2117.283,804.314c-29.207,64.031-0.023,140.049,65.183,169.792
					c65.207,29.743,141.744,1.947,170.951-62.083s0.023-140.049-65.183-169.792C2223.027,712.489,2146.49,740.284,2117.283,804.314z
					 M2134.627,812.225c24.916-54.624,90.211-78.337,145.839-52.962c55.628,25.372,80.525,90.225,55.608,144.849
					c-24.916,54.625-90.21,78.337-145.838,52.962C2134.607,931.701,2109.71,866.849,2134.627,812.225z"/>
				<path style="fill:#FFFFFF;" d="M2352.23,890.381c-0.137,0-0.277-0.016-0.416-0.052c-0.894-0.229-1.433-1.139-1.204-2.034
					c2.02-7.896,3.197-16.026,3.497-24.166c0.032-0.924,0.781-1.678,1.731-1.609c0.922,0.036,1.642,0.81,1.607,1.733
					c-0.308,8.378-1.519,16.744-3.598,24.871C2353.655,889.878,2352.975,890.381,2352.23,890.381z"/>
				<path style="fill:#FFFFFF;" d="M2459.75,1103.833c-0.436,0-0.871-0.17-1.198-0.506l-2.75-2.83
					c-0.645-0.663-0.628-1.72,0.033-2.363c0.663-0.646,1.722-0.627,2.363,0.033l2.75,2.83c0.645,0.663,0.628,1.72-0.033,2.363
					C2460.59,1103.676,2460.169,1103.833,2459.75,1103.833z"/>
			</g>
		</g>
	</g>
</g>
</svg>
